<?xml version="1.0" encoding="utf-8"?>
<!-- Generator: Adobe Illustrator 22.0.1, SVG Export Plug-In . SVG Version: 6.00 Build 0)  -->
<svg version="1.1" id="Layer_1" xmlns="http://www.w3.org/2000/svg" xmlns:xlink="http://www.w3.org/1999/xlink" x="0px" y="0px"
	 viewBox="0 0 1920 1080" style="enable-background:new 0 0 1920 1080;" xml:space="preserve">
<style type="text/css">
	.st0{fill:#E0E1E5;}
	.st1{fill:#CFD8E1;}
	.st2{fill:#0F8FB2;}
	.st3{fill:#DCDDE3;}
	.st4{fill:#0074A7;}
	.st5{fill:#A3BAC1;}
	.st6{fill:#2A87B6;}
	.st7{fill:#DCDBE2;}
	.st8{fill:#A9B4B7;}
</style>
<g>
	<polygon class="st0" points="709.4,842.6 814.4,465.5 1102.4,465.5 1196.9,842.6 1196.9,1074.5 1099,1074.4 712,1074.7 	"/>
	<polygon class="st1" points="708.9,452.2 813.9,465.1 813.9,1072.6 711.5,1072.6 	"/>
	<polygon class="st1" points="1098.5,465.1 1196.4,452.2 1196.4,1074.5 1098.5,1074.2 	"/>
	<polygon class="st2" points="708.9,452.2 813.9,434.2 1098.5,434.2 1196.4,452.2 1098.5,465.1 811.3,465.1 	"/>
	<polygon class="st3" points="1147.4,767 1185.4,773.5 1640,773.5 1640.2,1076.6 1147.6,1074.4 	"/>
	<polygon class="st4" points="1147.4,767.3 1195.8,759.4 1195.7,744.7 1447.5,744.7 1640,773.7 1185.4,773.7 	"/>
	<polygon class="st5" points="1147.4,767.3 1185.4,773.7 1185.4,1074.7 1147.4,1074.3 	"/>
	<polygon class="st6" points="758,669.6 709.8,661.8 709.7,647.1 457.9,647.1 265.4,676 720,676 	"/>
	<polygon class="st7" points="758,669.6 720,676 265.4,676 265.4,1076.8 758,1074.5 	"/>
	<polygon class="st8" points="758,669.6 720,676 720,1074.7 758,1074.4 	"/>
</g>
</svg>
